<?xml version="1.0" encoding="UTF-8" standalone="no"?>
<!-- Created with Inkscape (http://www.inkscape.org/) -->

<svg
   xmlns:dc="http://purl.org/dc/elements/1.1/"
   xmlns:cc="http://creativecommons.org/ns#"
   xmlns:rdf="http://www.w3.org/1999/02/22-rdf-syntax-ns#"
   xmlns:svg="http://www.w3.org/2000/svg"
   xmlns="http://www.w3.org/2000/svg"
   xmlns:sodipodi="http://sodipodi.sourceforge.net/DTD/sodipodi-0.dtd"
   xmlns:inkscape="http://www.inkscape.org/namespaces/inkscape"
   id="svg3368"
   version="1.1"
   inkscape:version="0.91 r13725"
   xml:space="preserve"
   width="228.68541"
   height="39.012424"
   viewBox="0 0 228.68541 39.012424"
   sodipodi:docname="Le Figaro.svg"><metadata
     id="metadata3374"><rdf:RDF><cc:Work
         rdf:about=""><dc:format>image/svg+xml</dc:format><dc:type
           rdf:resource="http://purl.org/dc/dcmitype/StillImage" /><dc:title></dc:title></cc:Work></rdf:RDF></metadata><defs
     id="defs3372" /><sodipodi:namedview
     pagecolor="#ffffff"
     bordercolor="#666666"
     borderopacity="1"
     objecttolerance="10"
     gridtolerance="10"
     guidetolerance="10"
     inkscape:pageopacity="0"
     inkscape:pageshadow="2"
     inkscape:window-width="1920"
     inkscape:window-height="1017"
     id="namedview3370"
     showgrid="false"
     fit-margin-top="5"
     fit-margin-left="5"
     fit-margin-bottom="4"
     fit-margin-right="4"
     inkscape:zoom="1.9463918"
     inkscape:cx="128.86232"
     inkscape:cy="20.430662"
     inkscape:window-x="-8"
     inkscape:window-y="-8"
     inkscape:window-maximized="1"
     inkscape:current-layer="g3378" /><g
     id="g3376"
     inkscape:groupmode="layer"
     inkscape:label="ink_ext_XXXXXX"
     transform="matrix(1.25,0,0,-1.25,-5.9545875,141.18718)"><g
       id="g3378"
       transform="scale(0.1,0.1)"><path
         d="m 1738.9,1048.14 c -29.47,0.2 -34.4,-30.19 -34.4,-80.214 0,-56.403 8.34,-81.879 34.23,-81.879 30.84,0 32.8,30.164 32.8,81.879 0,51.904 -2.9,80.034 -32.63,80.214 z m -0.51,-197.015 c -63.03,0 -106.39,47.961 -106.39,118.527 0,70.568 43.36,118.868 106.39,118.868 63.37,0 106.73,-48.3 106.73,-118.868 0,-70.566 -43.36,-118.527 -106.73,-118.527"
         style="fill:#231f20;fill-opacity:1;fill-rule:evenodd;stroke:none"
         id="path3382"
         inkscape:connector-curvature="0" /><path
         d="m 1636.88,885.969 c 0,-12.891 -14.3,-36.571 -50.17,-36.571 -35.86,0 -56.26,33.055 -59.07,59.782 -0.96,9.144 -2.07,16.836 -3.16,22.992 -0.82,4.668 -5.51,17.562 -20.28,18.031 l -20.63,0 0,-33.055 c 0,-8.203 6.79,-22.035 29.07,-19.691 l 0,-43.133 -119.56,0 0,43.133 c 20.39,-2.812 26.26,14.77 26.26,20.629 l 0,105.494 c -1.65,21.8 -18.29,21.1 -26.26,21.1 l 0,44.07 132.21,0 c 42.91,0 78.49,-30.24 79.56,-67.08 1.09,-37.475 -19.54,-57.639 -46.44,-61.557 19.39,-8.269 36.28,-34.523 42.14,-62.656 1.87,-6.801 11.25,-4.922 10.31,7.5 l 26.02,0 0,-18.988 z m -153.31,105.492 0,56.499 26.25,0 -0.46,-0.23 c 15.56,0 28.18,-12.62 28.18,-28.19 0,-15.56 -12.62,-28.177 -28.18,-28.177 l -25.79,0.098"
         style="fill:#231f20;fill-opacity:1;fill-rule:evenodd;stroke:none"
         id="path3384"
         inkscape:connector-curvature="0" /><path
         d="m 87.6367,897.559 0.2266,0.257 -0.2266,-0.257 z m 137.8553,22.636 0,22.926 48.125,0 0,-88.613 -185.9803,0 0,43.051 c 12.7343,0.109 17.8123,13.964 17.8123,20.164 l 0,106.317 c 0,5.16 -2.344,19.17 -17.4998,20.6 l 0,43.96 106.2498,0 0,-43.96 c -5.363,0.04 -23.125,-3.26 -23.125,-21.66 l 0,-125.421 -0.054,0 c 0.078,0.082 31.41,0 31.41,0 18.285,0 23.062,18.183 23.062,22.636"
         style="fill:#231f20;fill-opacity:1;fill-rule:evenodd;stroke:none"
         id="path3386"
         inkscape:connector-curvature="0" /><path
         d="m 307.219,921.008 0,101.732 c 0,7.64 -7.86,21.99 -21.746,21.99 l 0,43.93 197.945,0 0,-88.63 -51.859,0 0,24.14 c 0,8.78 -6.055,20.47 -20.539,20.47 l -33.934,0 0,-49.386 38.746,0 0,-41.039 -38.746,0 0,-56.59 32.812,0 c 18.52,0 21.625,15.07 21.625,20.34 l 0,24.863 51.895,0 0,-88.621 -198.258,0 0,43.223 c 13.809,0 22.059,13.39 22.059,23.578"
         style="fill:#231f20;fill-opacity:1;fill-rule:evenodd;stroke:none"
         id="path3388"
         inkscape:connector-curvature="0" /><path
         d="m 694.836,897.559 11.293,0 0,-43.813 -122.055,0 0,43.457 c 8.442,0 23.836,7.012 23.836,23.914 l 0,99.743 c 0,18.39 -15.394,23.91 -23.836,23.91 l 0,44.13 192.883,0 0,-86.15 -43.883,0 0,24.77 c 0,7.78 -5.738,20.44 -20.051,20.44 l -39.171,0 0,-48.569 45.8,0 0,-41.309 -45.8,0 0,-40.59 c 0,-15.359 15.246,-19.933 20.984,-19.933"
         style="fill:#231f20;fill-opacity:1;fill-rule:evenodd;stroke:none"
         id="path3390"
         inkscape:connector-curvature="0" /><path
         d="m 905.262,897.438 0,-43.692 -115.739,0 0,43.692 c 19.079,0 25.782,14.554 25.782,22.976 l 0,100.876 c 0,6.98 -5.137,23.45 -25.469,23.45 l 0,44.16 115.426,0 0,-44.16 c -21.543,0 -25.961,-15.77 -25.961,-24.85 l 0,-99.949 c 0,-11.234 10.039,-22.503 25.961,-22.503"
         style="fill:#231f20;fill-opacity:1;fill-rule:evenodd;stroke:none"
         id="path3392"
         inkscape:connector-curvature="0" /><path
         d="m 1107.08,918.789 0.01,1.031 0,-65.496 -55.52,0 0,10.082 c -12.22,-7.504 -19.98,-11.207 -34.84,-11.207 -56.871,0 -101.695,36.582 -101.695,113.91 0,73.801 33.438,122.161 84.063,122.161 17.192,0 43.442,2.64 56.252,-10.07 l 0,9.35 52.39,0 0,-85.76 -51.85,0 c 0,24.54 -4.14,52.36 -34.03,52.36 -32.462,0 -31.055,-34.38 -31.008,-72.31 0.046,-37.094 -3.329,-89.313 30.988,-89.313 18.05,0.465 23.59,10.024 25.46,12.836 14.93,22.399 -2.81,32.211 -11.02,32.211 l -7.25,0 0,34.528 100.63,0 0,-34.528 -3.89,-0.019 c -12.13,0 -18.69,-6.871 -18.69,-19.766"
         style="fill:#231f20;fill-opacity:1;fill-rule:evenodd;stroke:none"
         id="path3394"
         inkscape:connector-curvature="0" /><path
         d="m 1380.89,897.457 0,-43.133 -111.12,0 0,42.727 c 19.93,5.453 13.36,21.972 11.72,27.129 l -66.8,0 c -1.65,-4.219 -10.08,-22.035 13.71,-26.723 l 7.14,0 0,-43.133 -108.3,0 0,43.133 c 26.02,-2.812 28.83,11.02 32.35,18.754 l 63.77,172.539 61.6,0 71.74,-175.82 c 2.86,-6.567 7.54,-15.473 24.19,-15.473"
         style="fill:#231f20;fill-opacity:1;fill-rule:evenodd;stroke:none"
         id="path3396"
         inkscape:connector-curvature="0" /><path
         d="m 1246.28,1015.14 20.38,-49.956 -0.17,-0.215 -38.92,0 0.06,-0.102 18.65,50.273"
         style="fill:#ffffff;fill-opacity:1;fill-rule:evenodd;stroke:none"
         id="path3398"
         inkscape:connector-curvature="0" /></g></g></svg>