<svg version="1" id="Calque_1" xmlns="http://www.w3.org/2000/svg" width="223.456" height="59" viewBox="0 0 223.456 59"><switch><g><path d="M220.934 10.844c0-6.109-7.808-10.844-16.48-10.844-15.392 0-21.608 7.903-21.136 15.869.964 16.284 32.755 13.196 32.755 28.009 0 7.531-4.751 13.473-15.08 13.615-2.394.005-5.143.35-10.125-2.304 1.609-1.289 2.953-2.443 2.881-6.372-.065-3.598-2.414-7.113-6.402-7.113-2.081 0-4.314 2.114-4.314 5.129 0 6.024 8.145 11.663 17.961 11.663 11.534 0 22.464-5.913 22.464-17.715 0-18.244-32.206-15.437-32.206-27.571 0-7.114 5.184-12.314 13.11-12.17 4.378.079 6.548.95 8.307 1.862-.867 1.673-1.531 4.259-1.531 5.934 0 3.514 2.027 6.959 5.842 6.959 2.079.001 3.954-2.021 3.954-4.951zm-68.36 18.392c8.229-.744 16.175-6.942 16.175-14.855 0-10.884-9.574-14.31-21.306-14.31h-26.228v1.533c3.91 1.649 7.391 1.511 7.232 10.234v36.609c.027 9.267-3.322 8.359-7.232 10.01V59h27.938c13.197 0 21.752-4.123 21.752-15.17 0-9.731-10.102-14.265-18.331-14.594zm-6.028-.246h-9.901V1.058h9.901c8.392 0 14.126 4.995 14.126 13.322 0 8.327-5.734 14.61-14.126 14.61zm16.036 14.841c0 8.904-5.282 14.019-14.65 14.019h-11.287V30.47h11.287c9.368 0 14.65 4.453 14.65 13.361zM114.944 29.88c0-17.757-13.925-29.713-28.818-29.713-14.894 0-28.818 11.957-28.818 29.713 0 17.761 13.925 28.741 28.818 28.741 14.893.002 28.818-10.98 28.818-28.741zm-10.558 0c0 16.237-4.867 27.5-18.259 27.676C71.11 57.751 67.68 46.118 67.68 29.88c0-16.236 5.084-28.647 18.447-28.647 13.694 0 18.259 12.412 18.259 28.647zM40.669 58.987l4.205-18.456h-.678c-4.091 8.696-10.793 17.361-19.437 17.361H14.231V10.633c0-5.414 1.782-7.682 5.486-9.323V.053H.034v1.144c3.705 1.642 6.063 4.022 6.063 9.437V48.84c0 5.417-2.393 7.881-6.097 9.52v.629l40.669-.002zm3.322-49.138c0-4.525-2.108-7.417-5.829-7.417-3.101 0-5.768 2.64-5.768 5.907 0 2.265 1.304 4.279 2.667 5.284 2.48 1.759 3.597 3.642 3.597 5.78 0 2.389-1.804 4.712-4.284 6.723-.936.71-2.021 1.239-3.261 1.741v.78c7.333-1.597 12.878-13.143 12.878-18.798z"/></g></switch></svg>